/* XPM */
static char *result[] = {
/* columns rows colors chars-per-pixel */
"32 32 12 1 ",
"  c #4E4E4E",
". c #6D6F7D",
"X c #73747B",
"o c #7E7E7E",
"O c #93949E",
"+ c #97989C",
"@ c #9597A1",
"# c #AEAFB6",
"$ c gray79",
"% c #D0D0D0",
"& c gray87",
"* c None",
/* pixels */
"********************************",
"**********           ***********",
"*********  @@@   XXX  o*********",
"********  ...  XX$$$X+oo********",
"******** @@@  X$$$$$%%+oo*******",
"*******  ... X$$$XX+%%%+ *******",
"******* @@@  $$$X###+%%$  ******",
"******  ... X$XX#####+X$X ******",
"****** @@@  X$@####&#@@$X  *****",
"****** ... X$X###++&@@@X$X *****",
"****** @@@ $$+##++&&X@@X$$ *****",
"*****  ... $%###&&$@&&@@$$o*****",
"***** @@@ o%%##+$$$$$&X@%%oo****",
"***** ...o+%+##XXXXXXXX#+%+ ****",
"***** @@#o+%+#@XXX&$$X+#+%X ****",
"***** .OOo+%+@XXX&&$$++#X$X ****",
"***** ###o+$X@XXX&@%#++@X$X ****",
"***** OOOoX$X@XXX@+%++@@X$+o****",
"***** ### X$X@XXX+&%+X@@X%+o****",
"***** OO.  $$@XX+&&$@XX@%%oo****",
"***** o@@@ $$@+++&&$$X+#%%o*****",
"****** ... $$++++&&&$+++%%o*****",
"****** @@@ X%+++X&&X%+++%+o*****",
"****** ... o+%@@XX&&&##%+oo*****",
"******  @##o+$XX@+###++%+o******",
"******* OOOo $$$+###+%%%oo******",
"*******oo##@ X%%%+++%%%+o*******",
"********o... o+%%%%%%%+oo*******",
"********  @@#oo++%%%++oo********",
"********* oOOOooo+++ooo*********",
"**********ooooooooooo***********",
"********************************"
};
