/* XPM */
static char *result[] = {
/* columns rows colors chars-per-pixel */
"32 32 7 1 ",
"  c #4E4E4E",
". c #6D6F7D",
"X c #7E7E7E",
"o c #93949E",
"O c #9597A1",
"+ c #AEAFB6",
"@ c None",
/* pixels */
"@@@@@@@@@@@@@@@@@@@@@@@@@@@@@@@@",
"@@@@@@@@@@@@@XXXXXX@@@@@@@@@@@@@",
"@@@@@@@@@@@@@X++++X@@@@@@@@@@@@@",
"@@@@@@@@@@@@@XooooX@@@@@@@@@@@@@",
"@@@@@@@@@@@@@X++++X@@@@@@@@@@@@@",
"@@@@@@@@@@@@@ .... @@@@@@@@@@@@@",
"@@@@@@@@@@@@@ OOOO @@@@@@@@@@@@@",
"@@@@@@@@@@@@@XooooX@@@@@@@@@@@@@",
"@@@@@@@@@@@@@X++++X@@@@@@@@@@@@@",
"@@@@@@@@@@@@@XooooX@@@@@@@@@@@@@",
"@@@@@@@@@@@@@ OOOO @@@@@@@@@@@@@",
"@@@@@@@@@@@@@ .... @@@@@@@@@@@@@",
"@@@@@@@@@@@@@X++++X@@@@@@@@@@@@@",
"@@@@@@@@@@@@@XooooX@@@@@@@@@@@@@",
"@@@@@@@@@@@@@X++++X@@@@@@@@@@@@@",
"@@@@@@@@@@@@@XooooX@@@@@@@@@@@@@",
"@@@@@@@@@@@@@X++++X@@@@@@@@@@@@@",
"@@@@@@@@@@@@@XooooX@@@@@@@@@@@@@",
"@@@@@@@@@@@@@X++++X@@@@@@@@@@@@@",
"@@@@@@@@@@@@@XooooX@@@@@@@@@@@@@",
"@@@@@@@@@@@@@X++++X@@@@@@@@@@@@@",
"@@@@@@@@@@@@@XooooX@@@@@@@@@@@@@",
"@@@@@@@@@@@@@ OOOO @@@@@@@@@@@@@",
"@@@@@@@@@@@@@ .... @@@@@@@@@@@@@",
"@@@@@@@@@@@@@ OOOO @@@@@@@@@@@@@",
"@@@@@@@@@@@@@ .... @@@@@@@@@@@@@",
"@@@@@@@@@@@@@ OOOO @@@@@@@@@@@@@",
"@@@@@@@@@@@@@ .... @@@@@@@@@@@@@",
"@@@@@@@@@@@@@ OOOO @@@@@@@@@@@@@",
"@@@@@@@@@@@@@ .... @@@@@@@@@@@@@",
"@@@@@@@@@@@@@      @@@@@@@@@@@@@",
"@@@@@@@@@@@@@@@@@@@@@@@@@@@@@@@@"
};
