/* XPM */
static char *result[] = {
/* columns rows colors chars-per-pixel */
"32 32 17 1 ",
"  c #4E4E4E",
". c #73747B",
"X c #7E7E7E",
"o c #97989C",
"O c #9B9B9B",
"+ c #9597A1",
"@ c #A4A4A8",
"# c #ABACAF",
"$ c #AEAFB6",
"% c #B8B9BB",
"& c gray79",
"* c #D0D0D0",
"= c gray82",
"- c #D2D1D1",
"; c gray84",
": c gray87",
"> c None",
/* pixels */
">>>>>>>>>>>>>>>>>>>>>>>>>>>>>>>>",
">>>>>>>>>>>>     XXX>>>>>>>>>>>>",
">>>>>>>>>    ...o%%XXX >>>>>>>>>",
">>>>>>>>  ...&&***;%%@  >>>>>>>>",
">>>>>>   .&&&&*****;-&.   >>>>>>",
">>>>>  ..&&&&ooooo.&&&&..  >>>>>",
">>>>  .&&&&oo$$$$++..&&&&.XX>>>>",
">>>> .&&&.o$$$$$+++++..&**oX>>>>",
">>>  .&&.$$$$$$+&:+++++o**o  >>>",
">>  .&&.$$$$$$..&:.+++$$o*&.  >>",
">> .&&&o$$$$.:.:&::.:$$$.&&&. >>",
">> .&&o$$$$.:+:&++&:$:$++.&&oO>>",
">  .**o$$$..&&&&&&***:.++.&*#OO>",
"> .**o$$$+.......oooo...++o*=#O>",
"> o**o$$++.....:****....$$o*=#O>",
">Xo**o$++.....::**&&&..o$$o**#O>",
">Xo**.+++....::$$&&++.o$$$o**oO>",
">Xo*&.++...&o:$o.&&.oo$$$$o**oX>",
">Xo&&.++...*o:o:.&&o*o$$$$o**oX>",
">X .&&.+..o:o:::+&*$*oo$$o**oXX>",
">> .&&.+oooo.::::****oo$$o**oX>>",
">> .&&&o$oo..:::::***oo$o***o >>",
">>  .&*o$o....:::oo*ooo$o**o  >>",
">>>  o**.++.ooo:::::o$$o**.  >>>",
">>>>Xo*&&..$$oo$$$$$$oo**&. >>>>",
">>>>XX.&&&*oo$$$$$$oo***&.  >>>>",
">>>>>  .o****oooooo***&..  >>>>>",
">>>>>> XXo***********&.   >>>>>>",
">>>>>>>>XXooo******o..  >>>>>>>>",
">>>>>>>>>XXXXooooo.    >>>>>>>>>",
">>>>>>>>>>>>XXXXX   >>>>>>>>>>>>",
">>>>>>>>>>>>>>>>>>>>>>>>>>>>>>>>"
};
