/* XPM */
static char *result[] = {
/* columns rows colors chars-per-pixel */
"32 33 19 1 ",
"  c #4E4E4E",
". c #6D6F7D",
"X c #73747B",
"o c #7E7E7E",
"O c #919090",
"+ c #93949E",
"@ c #97989C",
"# c #9B9B9B",
"$ c #9597A1",
"% c #A9AAB0",
"& c #AEAFB6",
"* c #B8B9BB",
"= c #BABBC0",
"- c gray79",
"; c #D0D0D0",
": c #D2D1D1",
"> c gray84",
", c gray87",
"< c None",
/* pixels */
"<<<<<<<<<<<<<<<<<<<<<<<<<<<<<<<<",
"<<<<<<<<<<<<<<<<<<<<<<<<<<<<<<<<",
"<<<<<<<<<<<  oooo##   <<<<<<<<<<",
"<<<<<<<<<   @**ooo$$$  <<<<<<<<<",
"<<<<<<<<  X@;;>**O ...  <<<<<<<<",
"<<<<<<<  X;;;;;>:X  $$$ <<<<<<<<",
"<<<<<<< X;;;@@X---X ...oo<<<<<<<",
"<<<<<< o;;;@&$$X---  $&&o<<<<<<<",
"<<<<<<o@;@@&$$$$XX-Xo+++  <<<<<<",
"<<<<<oo@;&&$$$,$$$-@oo&$$ <<<<<<",
"<<<<<o@;@&$$XX,$$$@;@o... <<<<<<",
"<<<<<o;;X$$XX,,X$&@;- $$$ <<<<<<",
"<<<<<o;-$$$,,-$,,&&-- ..+##<<<<<",
"<<<<oo--$$X---;;,@$--  &==#<<<<<",
"<<<<oX-X$$XXX@@@@X$X-Xo+%%#<<<<<",
"<<<< X-X$$XX@,;;XX$X;@o&==#<<<<<",
"<<<< X-X$XX@,,--XX$@;@o++%#<<<<<",
"<<<< X-X$@@@,$-$XX&@;@o&&&#<<<<<",
"<<<< X-X&@@@$X-X@&&@;@o+++o<<<<<",
"<<<< X-@&@@XX,-@@&&@;@o&&&o<<<<<",
"<<<<  ;;&XXX,,;&@@&;;oo+++o<<<<<",
"<<<<<o;;$XXX,,;;@@&;;o&&&o <<<<<",
"<<<<<o;-XXX@,,,;@@@;;o+++ <<<<<<",
"<<<<<oX-XX@@,,@;@@@;@o&&$ <<<<<<",
"<<<<<  X;&&@@,,,&&;@oo... <<<<<<",
"<<<<<< @;@@&@&&&@@;@o$$$  <<<<<<",
"<<<<<<oo;;;@&&&@;;;o ... <<<<<<<",
"<<<<<<<o@;;;@@@;;;X $$$  <<<<<<<",
"<<<<<<<oo@;;;;;;;X  ... <<<<<<<<",
"<<<<<<<<oo@@;;;@X  $$$  <<<<<<<<",
"<<<<<<<<<ooo@@X   ...  <<<<<<<<<",
"<<<<<<<<<<<oo         <<<<<<<<<<",
"<<<<<<<<<<<<<<<<<<<<<<<<<<<<<<<<"
};
