/* XPM */
static char *result[] = {
/* columns rows colors chars-per-pixel */
"32 32 16 1 ",
"  c #4E4E4E",
". c #6D6F7D",
"X c #73747B",
"o c #7E7E7E",
"O c #919090",
"+ c #93949E",
"@ c #97989C",
"# c #9597A1",
"$ c gray67",
"% c #AEAFB6",
"& c gray79",
"* c #D0D0D0",
"= c #D2D1D1",
"- c gray84",
"; c gray87",
": c None",
/* pixels */
"::::::::::::::::::::::::::::::::",
":::::::::::        o::::::::::::",
":::::::::      XXX@$$o::::::::::",
":::::::      XX&&***-$$O::::::::",
"::::::  #  XX&&&*****-=  :::::::",
":::::  .  X&&&X@@@@@&&&&  ::::::",
"::::  #  X&&&@%%%%%#X&&&&  :::::",
":::: .. X&&X@%%%%%###XX&&&o:::::",
":::  #  X&X%%%%%%######X&*oo::::",
"::: .. X&X%%%%%%########@**o::::",
"::  #  X&@%%%%;&#&&&###%@*&  :::",
":: .. X&@%%%%;&#;;;;;#%%%X&& :::",
":  #  @*@%%%&;##&;&&;%%%#X&& o::",
": .. @*@%%%#;&;####***%###X&*o::",
": ##o@*@%%##&&##;;%%*%&###@**o::",
": .+o@*@%##;;&#;#%*%##&##%@**o::",
": %%o@*X###&;XX%%**XX&;#%%@**o::",
": ++o@&X###XX&@@**XX;;;%%%@**o::",
": %%oX&X###X;*;@@XX&;;@%%%@**o::",
": o+  X&X##X@*;;;;X;*@@%%@**oo::",
"::o## X&X#%%@@&&&&@**@@%%@**o:::",
"::  .  X&@%%%X&&&@@@*@%%@**oo:::",
"::: ## X*@%%##XX@@@@@%%%@**o::::",
":::  . o@*X###@@@@@@%%%@**oo::::",
":::: %%o@&&XX%%%%%%%%@@***o:::::",
"::::oo+o X&&*@%%%%%%@****o :::::",
":::::oo#  @***@@@@@@****  ::::::",
"::::::  .oo@@**********  :::::::",
"::::::: ooooo@@******o  ::::::::",
":::::::::oooooo@@@@o  ::::::::::",
":::::::::::oooooooo ::::::::::::",
"::::::::::::::::::::::::::::::::"
};
