/* XPM */
static char *result[] = {
/* columns rows colors chars-per-pixel */
"32 32 20 1 ",
"  c #4E4E4E",
". c #6D6F7D",
"X c #73747B",
"o c #7E7E7E",
"O c #919090",
"+ c #93949E",
"@ c #97989C",
"# c #9B9B9B",
"$ c #9597A1",
"% c #A4A4A8",
"& c gray67",
"* c #A9AAB0",
"= c #AEAFB6",
"- c #B8B9BB",
"; c #BABBC0",
": c gray79",
"> c #D0D0D0",
", c gray84",
"< c gray87",
"1 c None",
/* pixels */
"11111111111111111111111111111111",
"11111111111    oooo#111111111111",
"111111111   XX@-&ooo  1111111111",
"1111111   :::>>>--&O    11111111",
"111111  ::::>>>>>,%X  $  1111111",
"11111  ::::@@@@@X:::X  . o111111",
"1111  :::@@====$$XX::X  =oo11111",
"1111 ::X@@====$$$$XXX:@o++ 11111",
"111  ::@=====$:<$$$$X@@oo$  1111",
"111 ::@=====XX:<X$$$=@>@ .. 1111",
"11  :>@===X<X<:<<X<==@:X  $ #111",
"11 :>@===X<$<:$$:<=<=$X:X +*#111",
"1 o>>@==XX::::::>>><X$X:Xo#;##11",
"1o>>@==$XXXXXXX@@@@XXX$X>@#**#11",
"1o>>@=$$XXXXX<>>>>XXXX=@>@#;;#11",
"1o>>@$$XXXXX<<>>:::XX@=@>@o**#11",
"1o>:X$$XXXX<<==::$$X@==@>@o=;#11",
"1o::X$$XX:@<=@X::X@@===@>@o++#11",
"1 ::X$$XX>@<@<X::@>@===@>@o==o11",
"1  ::X$X@<@<<<$:>=>@@=@>@oo+oo11",
"11 ::X=@@@X<<<<>>>>@@=@>@o== 111",
"11  :>@@@XX<<<<<>>>@@@>@oo+  111",
"111 >>@@XXXX<<<@@>@@@@>@o=$ 1111",
"111oo>:X$X@@@<<<<<@=@@@o .  1111",
"1111o::XX@=@@=====@@@>@ $$ 11111",
"1111  ::>@@======@@>>@  .  11111",
"11111 o>>>>@@@@@@>>>X  $  111111",
"111111oo>>>>>>>>>>@X  .  1111111",
"1111111ooo>>>>>>@@      11111111",
"111111111ooo@@@@      1111111111",
"11111111111oooo     111111111111",
"11111111111111111111111111111111"
};
