/* XPM */
static char *result[] = {
/* columns rows colors chars-per-pixel */
"32 32 17 1 ",
"  c #4E4E4E",
". c #73747B",
"X c #7E7E7E",
"o c #97989C",
"O c #9B9B9B",
"+ c #9597A1",
"@ c #A4A4A8",
"# c #ABACAF",
"$ c #AEAFB6",
"% c #B8B9BB",
"& c gray79",
"* c #D0D0D0",
"= c gray82",
"- c #D2D1D1",
"; c gray84",
": c gray87",
"> c None",
/* pixels */
">>>>>>>>>>>>>>>>>>>>>>>>>>>>>>>>",
">>>>>>>>>>>>     XXX>>>>>>>>>>>>",
">>>>>>>>>    ...o%%XXX >>>>>>>>>",
">>>>>>>>  ...&&***;%%@  >>>>>>>>",
">>>>>>   .&&&&*****;-&.   >>>>>>",
">>>>>  ..&&&&ooooo.&&&&..  >>>>>",
">>>>  .&&&&oo$$$$++..&&&&.XX>>>>",
">>>> .&&&.o$$$$$+++++..&**oX>>>>",
">>>  .&&.$$$$$$++++++++o**o  >>>",
">>  .&&.$$$$$$++++++++$$o*&.  >>",
">> .&&&o$$$$::&+&&&++$$$.&&&. >>",
">> .&&o$$$$::&+:::::$$$++.&&oO>>",
">  .**o$$$&:&++&:&*::$+++.&*#OO>",
"> .**o$$$+:&&:+++$***&++++o*=#O>",
"> o**o$$++&&:++::$$*&+&+$$o*=#O>",
">Xo**o$++::&++:$$*++&+&$$$o**#O>",
">Xo**.+++&:.:o$$*&..+&:$$$o**oO>",
">Xo*&.+++..&:oo*&..::::$$$o**oX>",
">Xo&&.+++.:*::o...&:::o$$$o**oX>",
">X .&&.++.o**::::.:**oo$$o**oXX>",
">> .&&.+$$oo&&&&*o***oo$$o**oX>>",
">> .&&&o$$$..&&*ooo*oo$$o***o >>",
">>  .&*o$$++..ooooooo$$$o**o  >>",
">>>  o**.+++$oooooo$$$$o**.  >>>",
">>>>Xo*&&..$$$$$$$$$$oo**&. >>>>",
">>>>XX.&&&*oo$$$$$$oo***&.  >>>>",
">>>>>  .o****oooooo***&..  >>>>>",
">>>>>> XXo***********&.   >>>>>>",
">>>>>>>>XXooo******o..  >>>>>>>>",
">>>>>>>>>XXXXooooo.    >>>>>>>>>",
">>>>>>>>>>>>XXXXX   >>>>>>>>>>>>",
">>>>>>>>>>>>>>>>>>>>>>>>>>>>>>>>"
};
