/* XPM */
static char *result[] = {
/* columns rows colors chars-per-pixel */
"32 33 2 1 ",
"  c #0C1317",
". c #12274D",
/* pixels */
"                                ",
"                                ",
"                                ",
"                                ",
"                                ",
"                                ",
"                                ",
"                                ",
"                                ",
"                                ",
"                                ",
"                                ",
"          .............         ",
"          .............         ",
"          .............         ",
"          .............         ",
"          .............         ",
"          .............         ",
"          .............         ",
"                                ",
"    ............                ",
"    ............                ",
"    ............                ",
"    ............                ",
"    ............                ",
"    ............                ",
"    ............                ",
"                                ",
"                                ",
"                                ",
"                                ",
"                                ",
"                                "
};
