/* XPM */
static char *result[] = {
/* columns rows colors chars-per-pixel */
"32 32 6 1 ",
"  c #5A5875",
". c #3B6983",
"X c #748F93",
"o c #A5B5D4",
"O c #DEF9FC",
"+ c None",
/* pixels */
"++++++++++++++++++++++++++++++++",
"++++++++++++++++++++++++++++++++",
"++++++++++++++++++++++++++++++++",
"++++++++++++++++++++++++++++++++",
"++++++++++++++++++++++++++++++++",
"++++++++++++++++++++++++++++++++",
"++++++++++++++++++++++++++++++++",
"++++++++++++++++++++++++++++++++",
"+++++++++++++ooooo++++++++++++++",
"+++++++++++ooooooooo++++++++++++",
"++++++++++ooo     ooo+++++++++++",
"+++++++++oo         oo++++++++++",
"++++++++oo           oo+++++++++",
"++++++++oo           oo+++++++++",
"+++++++oo     ooo     oo++++++++",
"+++++++oo    oOOXo    oo++++++++",
"+++++++oo    oOO.X    oo++++++++",
"+++++++oo    oX..X    oo++++++++",
"+++++++oo     oXX     oo++++++++",
"++++++++oo           oo+++++++++",
"++++++++oo           oo+++++++++",
"+++++++++oo         oo++++++++++",
"++++++++++ooo     ooo+++++++++++",
"+++++++++++ooooooooo++++++++++++",
"+++++++++++++ooooo++++++++++++++",
"++++++++++++++++++++++++++++++++",
"++++++++++++++++++++++++++++++++",
"++++++++++++++++++++++++++++++++",
"++++++++++++++++++++++++++++++++",
"++++++++++++++++++++++++++++++++",
"++++++++++++++++++++++++++++++++",
"++++++++++++++++++++++++++++++++"
};
