/* XPM */
static char *result[] = {
/* columns rows colors chars-per-pixel */
"32 32 9 1 ",
"  c #282014",
". c #5B2C2B",
"X c #652A27",
"o c gray46",
"O c #006C82",
"+ c gray62",
"@ c #BEBDBC",
"# c white",
"$ c None",
/* pixels */
"$$$$$$$$$$$$$$$$$$$$$$$$$$$$$$$$",
"$$$$$$$$$$$$$$$$$$$$$$$$$$$$$$$$",
"$$$$$$$$$$$$$$$$$$$$$$$$$$$$$$$$",
"$$$$$$$$$$$$$$$$$$$$$$$$$$$$$$$$",
"$$$$$$$$$$$$$$$$$$$$$$$$@@$$$$$$",
"$$$$@@@$$$$$$$$$$$$$$$$@@@@$$$$$",
"$$$@@@@@$$$$$$$$$$$$$$@@@@@@$$$$",
"$$$@@ @@@@$$$$$$$$$$$@@@ @@@$$$$",
"$$$@@  @@@@$$$$$$$$$@@@  @@@@$$$",
"$$$@@   @@@@@$$$$$$@@@    @@@$$$",
"$$$@@     @@@@@$$$@@@     @@@$$$",
"$$$@@      @@@@@@@@@      @@@$$$",
"$$$@@      @@@@@@@@@      @@@$$$",
"$$$@@    @@@@@@@@@@@@@    @@@$$$",
"$$$@@  @@@@@@@@@@@@@@@@   @@@$$$",
"$$$@@+@@@@@@@@@@@@@@@@@@  @@@$$$",
"$$$@+@@@@@@@@@@@@@@@@@@@@+@@@$$$",
"$$$+@@@@@@@@@@@@@@@@@@@@@@+@@$$$",
"$$$+@@@@@@@@@@@@@@@@@@@@@@@+@$$$",
"$$$+@@@@@@@@@@@@@@@@@@@@@@@@+$$$",
"$$+@@@@@@@@@@@@@@@@@@@@@@@@@@+$$",
"$$+@@@#O@@@@@@@@@@#O@@@@@@@@@+$$",
"$$+@@@OO@@@@@@@@@@OO@@@@@@@@@+$$",
"$$+oo@@@@@@@@@@@@@@@@ooooo@@@+$$",
"$$ooo@@@@X@@.@@X@@@@@@ooooooo+$$",
"$$oo@@@@@@XX@XX@@@@@@@@@@ooooo$$",
"$$+@@@@@@@@@@@@@@@@@@@@@@@@@oo$$",
"$$+@@@@@@@@@@@@@@@@@@ooo@@@@@+$$",
"$$+@oo@@@@@@@@@@@@@@@@oooo@@@+$$",
"$$+ooo@@@@@@@@@@@@@@@@@@oooo@+$$",
"$$$oo@@@@@@@@@@@@@@@@@@@@oooo$$$",
"$$$$+@@@@@@@@@@@@@@@@@@@@@oo$$$$"
};
