/* XPM */
static char *_367bb8e176e4200d4b6edfd97369745oY6zzIjz6Peyxpph[] = {
/* columns rows colors chars-per-pixel */
"32 32 9 1 ",
"  c None",
". c #282014",
"X c #5B2C2B",
"o c #652A27",
"O c gray46",
"+ c #006C82",
"@ c gray62",
"# c #BEBDBC",
"$ c white",
/* pixels */
"                                ",
"                                ",
"                                ",
"      ##                        ",
"     ####                ###    ",
"    ######              #####   ",
"    ###.###           ####.##   ",
"   ####..###         ####..##   ",
"   ###....###      #####...##   ",
"   ###.....###   #####.....##   ",
"   ###......#########......##   ",
"   ###......#########......##   ",
"   ###....#############....##   ",
"   ###...################..##   ",
"   ###..##################@##   ",
"   ###@####################@#   ",
"   ##@######################@   ",
"   #@#######################@   ",
"   @########################@   ",
"  @##########################@  ",
"  @#########+$##########+$###@  ",
"  @#########++##########++###@  ",
"  @###OOOOO################OO@  ",
"  @OOOOOOO######o##X##o####OOO  ",
"  OOOOO##########oo#oo######OO  ",
"  OO#########################@  ",
"  @#####OOO##################@  ",
"  @###OOOO################OO#@  ",
"  @#OOOO##################OOO@  ",
"   OOOO####################OO   ",
"    OO#####################@    ",
"     @@@################@@@     "
};
